<?xml version="1.0" standalone="no"?>
<!DOCTYPE svg PUBLIC "-//W3C//DTD SVG 20010904//EN"
 "http://www.w3.org/TR/2001/REC-SVG-20010904/DTD/svg10.dtd">
<svg version="1.0" xmlns="http://www.w3.org/2000/svg"
 width="163.000000pt" height="163.000000pt" viewBox="0 0 163.000000 163.000000"
 preserveAspectRatio="xMidYMid meet">
<metadata>
Created by potrace 1.16, written by Peter Selinger 2001-2019
</metadata>
<g transform="translate(0.000000,163.000000) scale(0.100000,-0.100000)"
fill="#000000" stroke="none">
<path d="M680 1619 c-430 -65 -733 -472 -671 -899 48 -324 280 -580 600 -661
119 -30 310 -24 426 14 l79 26 81 -28 c44 -16 115 -36 158 -45 89 -18 267 -33
267 -21 0 4 -18 44 -40 88 -48 99 -80 218 -80 301 0 46 9 82 35 146 19 47 35
91 35 98 0 9 -27 12 -102 12 l-103 -1 -40 -82 c-76 -158 -241 -285 -413 -318
-86 -16 -231 -6 -311 21 -323 113 -487 491 -347 803 71 158 225 288 393 332
74 19 223 19 298 0 91 -24 179 -72 249 -136 l64 -59 116 0 c64 0 116 3 116 8
0 4 -12 25 -27 47 -113 168 -277 286 -467 335 -94 24 -229 32 -316 19z"/>
</g>
</svg>
